<svg version="1.1" id="Layer_1" xmlns="http://www.w3.org/2000/svg" xmlns:xlink="http://www.w3.org/1999/xlink" x="0px" y="0px"
	 width="100%" viewBox="0 0 500 500" enable-background="new 0 0 500 500" xml:space="preserve">
<path fill="#000000" opacity="1.000000" stroke="none" 
	d="
M214.000000,501.000000 
	C142.666687,501.000000 71.833366,501.000000 1.000038,501.000000 
	C1.000025,334.333405 1.000025,167.666779 1.000013,1.000128 
	C167.666580,1.000085 334.333160,1.000085 500.999817,1.000042 
	C500.999878,167.666534 500.999878,334.333069 500.999939,500.999817 
	C405.500000,501.000000 310.000000,501.000000 214.000000,501.000000 
M378.326874,162.778519 
	C379.453156,163.059601 380.579437,163.340668 381.586456,163.591995 
	C381.269379,160.468689 381.009094,157.905167 380.748810,155.341660 
	C380.315155,155.246735 379.881470,155.151810 379.447784,155.056885 
	C378.904785,157.045456 378.361755,159.034012 377.544983,161.244034 
	C377.483856,161.386902 377.342346,161.554901 377.377594,161.667618 
	C377.463654,161.942795 377.631500,162.192383 378.326874,162.778519 
M136.169312,128.298447 
	C136.866547,128.059143 137.563766,127.819847 138.261002,127.580544 
	C138.074112,127.178596 137.887238,126.776642 137.700363,126.374680 
	C137.133545,126.889351 136.566727,127.404022 136.169312,128.298447 
M71.012497,256.376282 
	C70.212570,256.247650 69.412643,256.119049 68.612709,255.990417 
	C68.651077,256.471375 68.689445,256.952332 68.727806,257.433289 
	C69.534821,257.195404 70.341827,256.957489 71.012497,256.376282 
M118.540283,146.830231 
	C117.862816,146.739471 117.185356,146.648712 116.507889,146.557953 
	C116.927826,147.200119 117.347763,147.842285 117.767700,148.484451 
	C118.107018,148.043747 118.446342,147.603058 118.540283,146.830231 
M160.221130,376.025177 
	C159.856796,375.629242 159.492462,375.233307 159.128113,374.837402 
	C158.865479,375.156616 158.602859,375.475830 158.340225,375.795044 
	C158.887421,375.956329 159.434601,376.117645 160.221130,376.025177 
M89.716690,325.012329 
	C89.528496,325.505890 89.340302,325.999481 89.152100,326.493042 
	C89.565216,326.463318 89.978325,326.433594 90.391434,326.403900 
	C90.279182,325.928040 90.166931,325.452148 89.716690,325.012329 
M148.236221,98.802994 
	C147.980270,99.089790 147.724319,99.376587 147.468369,99.663391 
	C147.738266,99.793854 148.008179,99.924309 148.278076,100.054771 
	C148.355515,99.681831 148.432953,99.308899 148.236221,98.802994 
M348.928833,368.521057 
	C349.302216,368.445862 349.675568,368.370667 350.048950,368.295502 
	C349.924805,368.021149 349.800690,367.746765 349.676575,367.472412 
	C349.386749,367.728394 349.096924,367.984344 348.928833,368.521057 
M123.155624,179.095200 
	C122.919365,178.655502 122.711800,178.194122 122.414558,177.800446 
	C122.372093,177.744202 121.895683,178.015564 121.620110,178.135315 
	C122.030205,178.492950 122.440300,178.850586 123.155624,179.095200 
M97.786415,154.568314 
	C97.430557,154.398041 97.074699,154.227768 96.718842,154.057495 
	C96.638573,154.337860 96.558311,154.618225 96.478050,154.898605 
	C96.884132,154.883957 97.290207,154.869308 97.786415,154.568314 
M413.208313,332.115692 
	C412.823608,331.979797 412.438873,331.843933 412.054169,331.708038 
	C412.077271,332.128204 412.100342,332.548340 412.123444,332.968506 
	C412.520294,332.787201 412.917145,332.605896 413.208313,332.115692 
M404.200775,299.577606 
	C404.505127,299.347290 404.809479,299.116974 405.113831,298.886627 
	C404.914154,298.701477 404.714478,298.516296 404.514801,298.331116 
	C404.343079,298.681366 404.171326,299.031616 404.200775,299.577606 
M136.902786,373.156219 
	C137.248734,373.242188 137.594666,373.328125 137.940598,373.414093 
	C137.960281,373.130829 137.979950,372.847534 137.999634,372.564270 
	C137.643234,372.666351 137.286850,372.768433 136.902786,373.156219 
M374.384155,131.948715 
	C374.318207,131.597519 374.252258,131.246323 374.186310,130.895142 
	C373.928009,131.018570 373.669678,131.141998 373.411346,131.265411 
	C373.648254,131.534073 373.885193,131.802734 374.384155,131.948715 
M329.894409,399.351440 
	C329.623260,399.089722 329.352142,398.827972 329.080963,398.566254 
	C328.969238,398.816467 328.857513,399.066681 328.745789,399.316895 
	C329.093201,399.412567 329.440582,399.508240 329.894409,399.351440 
M147.369003,365.328583 
	C147.652344,365.595398 147.933792,365.864441 148.231308,366.114380 
	C148.237900,366.119934 148.427170,365.908020 148.531219,365.797516 
	C148.204086,365.579498 147.876953,365.361481 147.369003,365.328583 
M315.505219,78.912514 
	C315.610321,78.681313 315.715454,78.450111 315.820587,78.218918 
	C315.677094,78.175827 315.533600,78.132736 315.390106,78.089645 
	C315.358154,78.342079 315.326202,78.594513 315.505219,78.912514 
M367.317047,365.070526 
	C367.170776,364.730530 367.032227,364.386475 366.860596,364.059845 
	C366.849335,364.038452 366.584686,364.150238 366.437897,364.200073 
	C366.647034,364.516235 366.856201,364.832367 367.317047,365.070526 
M308.616699,420.546173 
	C308.385071,420.803040 308.153412,421.059906 307.921783,421.316803 
	C308.189270,421.415070 308.456726,421.513336 308.724213,421.611633 
	C308.751953,421.319611 308.779694,421.027618 308.616699,420.546173 
M405.494720,290.087555 
	C405.389587,290.318756 405.284485,290.549927 405.179352,290.781128 
	C405.322845,290.824188 405.466370,290.867279 405.609863,290.910370 
	C405.641785,290.657959 405.673706,290.405548 405.494720,290.087555 
M369.011932,108.580727 
	C368.692200,108.691879 368.372467,108.803032 368.052734,108.914192 
	C368.119507,109.057083 368.186310,109.199974 368.253113,109.342865 
	C368.543701,109.170898 368.834290,108.998932 369.011932,108.580727 
M215.397629,90.913460 
	C215.215363,91.185539 215.033081,91.457611 214.850800,91.729683 
	C215.285141,91.819519 215.719498,91.909363 216.153839,91.999207 
	C216.001404,91.661674 215.848969,91.324142 215.397629,90.913460 
M348.269226,387.261200 
	C348.184174,387.057129 348.099152,386.853088 348.014099,386.648987 
	C347.889496,386.707703 347.764893,386.766388 347.640289,386.825104 
	C347.787048,386.998199 347.933807,387.171326 348.269226,387.261200 
M117.395332,175.991669 
	C117.489410,175.780243 117.583488,175.568802 117.677567,175.357376 
	C117.545425,175.315079 117.413277,175.272797 117.281136,175.230499 
	C117.255249,175.462662 117.229355,175.694809 117.395332,175.991669 
M430.248993,262.281036 
	C430.174957,262.053772 430.100952,261.826477 430.026917,261.599182 
	C429.911957,261.667938 429.796997,261.736664 429.682068,261.805420 
	C429.815613,261.997925 429.949158,262.190460 430.248993,262.281036 
M320.802551,388.938782 
	C320.782257,388.705078 320.761963,388.471344 320.741638,388.237640 
	C320.606964,388.272858 320.472290,388.308044 320.337616,388.343231 
	C320.427002,388.558624 320.516357,388.774017 320.802551,388.938782 
M363.362152,115.111435 
	C363.180695,114.967789 362.999268,114.824142 362.817810,114.680481 
	C362.737457,114.788261 362.657074,114.896042 362.576721,115.003838 
	C362.797607,115.090973 363.018494,115.178116 363.362152,115.111435 
M319.362091,85.111443 
	C319.180664,84.967796 318.999207,84.824150 318.817780,84.680511 
	C318.737396,84.788307 318.657043,84.896103 318.576660,85.003899 
	C318.797546,85.091034 319.018433,85.178177 319.362091,85.111443 
M84.938660,309.197510 
	C84.704964,309.217804 84.471268,309.238098 84.237572,309.258392 
	C84.272751,309.393066 84.307938,309.527740 84.343117,309.662415 
	C84.558502,309.573029 84.773880,309.483673 84.938660,309.197510 
M274.667297,403.199554 
	C274.499817,403.321075 274.332367,403.442566 274.164917,403.564087 
	C274.254181,403.655945 274.343445,403.747772 274.432739,403.839600 
	C274.555176,403.672485 274.677612,403.505371 274.667297,403.199554 
M357.340759,133.949387 
	C357.462158,133.955933 357.583588,133.962479 357.704987,133.969025 
	C357.609589,133.933762 357.514160,133.898499 357.340759,133.949387 
M87.609604,244.138626 
	C87.513351,244.066086 87.417107,243.993530 87.320862,243.920990 
	C87.379379,244.003113 87.437897,244.085236 87.609604,244.138626 
M97.488579,362.824066 
	C97.524956,362.837067 97.561333,362.850067 97.488579,362.824066 
M71.138084,211.600266 
	C71.027802,211.557770 70.917519,211.515274 70.807243,211.472778 
	C70.885147,211.536591 70.963051,211.600403 71.138084,211.600266 
M63.600266,202.862000 
	C63.557766,202.972305 63.515270,203.082596 63.472755,203.192886 
	C63.536568,203.114960 63.600384,203.037048 63.600266,202.862000 
M383.600311,332.862061 
	C383.557831,332.972351 383.515320,333.082672 383.472839,333.192963 
	C383.536682,333.115051 383.600494,333.037140 383.600311,332.862061 
M303.340729,424.949341 
	C303.462158,424.955902 303.583588,424.962433 303.705017,424.969025 
	C303.609589,424.933746 303.514160,424.898468 303.340729,424.949341 
M385.949036,140.659027 
	C386.031464,140.603424 386.113892,140.547821 386.196320,140.492233 
	C386.120483,140.426453 386.044617,140.360672 385.968750,140.294907 
	C385.933502,140.390289 385.898224,140.485672 385.949036,140.659027 
M371.662170,142.948212 
	C371.560242,143.012024 371.458313,143.075836 371.356384,143.139664 
	C371.454956,143.113892 371.553497,143.088104 371.662170,142.948212 
M340.662323,395.947968 
	C340.560303,396.011841 340.458313,396.075684 340.356293,396.139557 
	C340.454926,396.113739 340.553589,396.087952 340.662323,395.947968 
M126.949272,175.659241 
	C127.031715,175.603607 127.114159,175.547989 127.196594,175.492355 
	C127.120705,175.426590 127.044815,175.360825 126.968925,175.295044 
	C126.933662,175.390442 126.898399,175.485840 126.949272,175.659241 
M400.824127,197.511368 
	C400.937012,197.476761 401.049927,197.442154 401.162811,197.407547 
	C401.062927,197.405777 400.963013,197.404007 400.824127,197.511368 
M354.027924,382.019958 
	C354.027924,382.019958 353.995270,382.044586 354.027924,382.019958 
M93.037804,357.990173 
	C93.037804,357.990173 93.032516,358.030640 93.037804,357.990173 
M370.027893,349.019897 
	C370.027893,349.019897 369.995239,349.044525 370.027893,349.019897 
M172.009781,384.037811 
	C172.009781,384.037811 171.969284,384.032532 172.009781,384.037811 
M375.990295,362.962280 
	C375.990295,362.962280 376.030823,362.967560 375.990295,362.962280 
M131.962280,388.009796 
	C131.962280,388.009796 131.967575,387.969299 131.962280,388.009796 
M411.182373,338.857330 
	C411.092041,338.907654 411.001709,338.957977 410.911407,339.008331 
	C410.977112,339.082031 411.042847,339.155762 411.108582,339.229462 
	C411.167603,339.144104 411.226624,339.058746 411.182373,338.857330 
M418.009827,338.037781 
	C418.009827,338.037781 417.969330,338.032501 418.009827,338.037781 
M162.009781,392.037781 
	C162.009781,392.037781 161.969284,392.032501 162.009781,392.037781 
M362.972076,369.980042 
	C362.972076,369.980042 363.004700,369.955353 362.972076,369.980042 
M185.962250,392.009796 
	C185.962250,392.009796 185.967529,391.969269 185.962250,392.009796 
M337.019989,392.972260 
	C337.019989,392.972260 337.044647,393.004883 337.019989,392.972260 
M219.037750,437.990234 
	C219.037750,437.990234 219.032440,438.030762 219.037750,437.990234 
M402.134430,158.386169 
	C402.070251,158.481689 402.006073,158.577209 401.941864,158.672699 
	C402.019684,158.613281 402.097504,158.553848 402.134430,158.386169 
M154.027985,96.019936 
	C154.027985,96.019936 153.995346,96.044579 154.027985,96.019936 
M336.962250,103.009804 
	C336.962250,103.009804 336.967529,102.969315 336.962250,103.009804 
M142.980026,115.027870 
	C142.980026,115.027870 142.955383,114.995232 142.980026,115.027870 
M387.019836,127.972183 
	C387.019836,127.972183 387.044495,128.004822 387.019836,127.972183 
M138.972061,135.980164 
	C138.972061,135.980164 139.004715,135.955521 138.972061,135.980164 
M366.980133,146.027924 
	C366.980133,146.027924 366.955475,145.995285 366.980133,146.027924 
M100.020027,146.972168 
	C100.020027,146.972168 100.044678,147.004807 100.020027,146.972168 
M403.109894,151.115707 
	C402.971008,151.086914 402.832092,151.058105 402.693207,151.029312 
	C402.789154,151.095718 402.885101,151.162109 403.109894,151.115707 
M113.990303,172.962173 
	C113.990303,172.962173 114.030785,172.967468 113.990303,172.962173 
M421.027924,186.019897 
	C421.027924,186.019897 420.995300,186.044556 421.027924,186.019897 
M81.990364,194.962173 
	C81.990364,194.962173 82.030846,194.967453 81.990364,194.962173 
M410.972137,287.980042 
	C410.972137,287.980042 411.004761,287.955383 410.972137,287.980042 
M79.009720,283.037781 
	C79.009720,283.037781 78.969223,283.032501 79.009720,283.037781 
M424.972046,242.980072 
	C424.972046,242.980072 425.004700,242.955414 424.972046,242.980072 
M436.037811,235.990189 
	C436.037811,235.990189 436.032532,236.030685 436.037811,235.990189 
M83.027939,215.019958 
	C83.027939,215.019958 82.995293,215.044601 83.027939,215.019958 
M67.009819,210.037735 
	C67.009819,210.037735 66.969322,210.032440 67.009819,210.037735 
M70.990227,203.962250 
	C70.990227,203.962250 71.030724,203.967545 70.990227,203.962250 
M392.962250,189.009689 
	C392.962250,189.009689 392.967529,188.969193 392.962250,189.009689 
M195.141891,105.922279 
	C195.206161,105.924026 195.270432,105.925781 195.141891,105.922279 
M267.768890,410.318146 
	C267.768890,410.318146 267.944733,410.069122 267.944733,410.069122 
	C267.944733,410.069122 267.683807,410.225952 267.768890,410.318146 
M272.440247,411.496674 
	C272.440247,411.496674 272.476959,411.439423 272.440247,411.496674 
M386.504974,327.023468 
	C386.504974,327.023468 386.475525,326.994598 386.504974,327.023468 
M389.445679,159.980820 
	C389.445679,159.980820 389.523560,159.954483 389.445679,159.980820 
M275.548004,410.955170 
	C275.548004,410.955170 275.543671,411.008942 275.548004,410.955170 
M186.572998,106.029648 
	C186.572998,106.029648 186.484360,106.061340 186.572998,106.029648 
M385.462585,162.507599 
	C385.462585,162.507599 385.511566,162.491730 385.462585,162.507599 
M188.500748,107.578423 
	C188.500748,107.578423 188.446259,107.477448 188.500748,107.578423 
M277.477753,409.516174 
	C277.477753,409.516174 277.512726,409.510101 277.477753,409.516174 
M385.444427,324.504181 
	C385.444427,324.504181 385.520172,324.468201 385.444427,324.504181 
z"/>
<path fill="#000000" opacity="1.000000" stroke="none" 
	d="
M377.818756,161.022583 
	C378.361755,159.034012 378.904785,157.045456 379.447784,155.056885 
	C379.881470,155.151810 380.315155,155.246735 380.748810,155.341660 
	C381.009094,157.905167 381.269379,160.468689 381.586456,163.591995 
	C380.579437,163.340668 379.453156,163.059601 378.114624,162.380615 
	C377.950073,161.656082 377.922211,161.336044 377.818756,161.022583 
z"/>
<path fill="#000000" opacity="1.000000" stroke="none" 
	d="
M136.084610,128.108566 
	C136.566727,127.404022 137.133545,126.889351 137.700363,126.374680 
	C137.887238,126.776642 138.074112,127.178596 138.261002,127.580544 
	C137.563766,127.819847 136.866547,128.059143 136.084610,128.108566 
z"/>
<path fill="#000000" opacity="1.000000" stroke="none" 
	d="
M71.080666,256.547943 
	C70.341827,256.957489 69.534821,257.195404 68.727806,257.433289 
	C68.689445,256.952332 68.651077,256.471375 68.612709,255.990417 
	C69.412643,256.119049 70.212570,256.247650 71.080666,256.547943 
z"/>
<path fill="#000000" opacity="1.000000" stroke="none" 
	d="
M118.662971,146.996307 
	C118.446342,147.603058 118.107018,148.043747 117.767700,148.484451 
	C117.347763,147.842285 116.927826,147.200119 116.507889,146.557953 
	C117.185356,146.648712 117.862816,146.739471 118.662971,146.996307 
z"/>
<path fill="#000000" opacity="1.000000" stroke="none" 
	d="
M160.101471,376.152069 
	C159.434601,376.117645 158.887421,375.956329 158.340225,375.795044 
	C158.602859,375.475830 158.865479,375.156616 159.128113,374.837402 
	C159.492462,375.233307 159.856796,375.629242 160.101471,376.152069 
z"/>
<path fill="#000000" opacity="1.000000" stroke="none" 
	d="
M89.885681,324.994324 
	C90.166931,325.452148 90.279182,325.928040 90.391434,326.403900 
	C89.978325,326.433594 89.565216,326.463318 89.152100,326.493042 
	C89.340302,325.999481 89.528496,325.505890 89.885681,324.994324 
z"/>
<path fill="#000000" opacity="1.000000" stroke="none" 
	d="
M148.373306,98.869476 
	C148.432953,99.308899 148.355515,99.681831 148.278076,100.054771 
	C148.008179,99.924309 147.738266,99.793854 147.468369,99.663391 
	C147.724319,99.376587 147.980270,99.089790 148.373306,98.869476 
z"/>
<path fill="#000000" opacity="1.000000" stroke="none" 
	d="
M348.867981,368.380676 
	C349.096924,367.984344 349.386749,367.728394 349.676575,367.472412 
	C349.800690,367.746765 349.924805,368.021149 350.048950,368.295502 
	C349.675568,368.370667 349.302216,368.445862 348.867981,368.380676 
z"/>
<path fill="#000000" opacity="1.000000" stroke="none" 
	d="
M123.003006,179.151703 
	C122.440300,178.850586 122.030205,178.492950 121.620102,178.135315 
	C121.895683,178.015564 122.372093,177.744202 122.414558,177.800446 
	C122.711800,178.194122 122.919365,178.655502 123.003006,179.151703 
z"/>
<path fill="#000000" opacity="1.000000" stroke="none" 
	d="
M97.741348,154.711487 
	C97.290207,154.869308 96.884132,154.883957 96.478050,154.898590 
	C96.558311,154.618225 96.638573,154.337860 96.718842,154.057495 
	C97.074699,154.227768 97.430557,154.398041 97.741348,154.711487 
z"/>
<path fill="#000000" opacity="1.000000" stroke="none" 
	d="
M413.261169,332.270142 
	C412.917145,332.605896 412.520294,332.787201 412.123444,332.968506 
	C412.100342,332.548340 412.077271,332.128204 412.054169,331.708038 
	C412.438873,331.843933 412.823608,331.979797 413.261169,332.270142 
z"/>
<path fill="#000000" opacity="1.000000" stroke="none" 
	d="
M404.100189,299.479736 
	C404.171326,299.031616 404.343079,298.681366 404.514832,298.331116 
	C404.714478,298.516296 404.914154,298.701477 405.113831,298.886627 
	C404.809479,299.116974 404.505127,299.347290 404.100189,299.479736 
z"/>
<path fill="#000000" opacity="1.000000" stroke="none" 
	d="
M136.916626,373.013367 
	C137.286850,372.768433 137.643234,372.666351 137.999634,372.564270 
	C137.979950,372.847534 137.960281,373.130829 137.940598,373.414062 
	C137.594666,373.328125 137.248734,373.242188 136.916626,373.013367 
z"/>
<path fill="#000000" opacity="1.000000" stroke="none" 
	d="
M374.253143,132.010040 
	C373.885193,131.802734 373.648254,131.534073 373.411346,131.265411 
	C373.669678,131.141998 373.928009,131.018570 374.186310,130.895142 
	C374.252258,131.246323 374.318207,131.597519 374.253143,132.010040 
z"/>
<path fill="#000000" opacity="1.000000" stroke="none" 
	d="
M329.841187,399.477661 
	C329.440582,399.508240 329.093201,399.412567 328.745789,399.316895 
	C328.857513,399.066681 328.969238,398.816467 329.080994,398.566254 
	C329.352142,398.827972 329.623260,399.089722 329.841187,399.477661 
z"/>
<path fill="#000000" opacity="1.000000" stroke="none" 
	d="
M147.459412,365.236023 
	C147.876953,365.361481 148.204086,365.579498 148.531219,365.797516 
	C148.427170,365.908020 148.237900,366.119934 148.231308,366.114380 
	C147.933792,365.864441 147.652344,365.595398 147.459412,365.236023 
z"/>
<path fill="#000000" opacity="1.000000" stroke="none" 
	d="
M315.399750,78.879730 
	C315.326202,78.594513 315.358154,78.342079 315.390106,78.089645 
	C315.533600,78.132736 315.677094,78.175827 315.820587,78.218918 
	C315.715454,78.450111 315.610321,78.681313 315.399750,78.879730 
z"/>
<path fill="#000000" opacity="1.000000" stroke="none" 
	d="
M367.191193,365.109528 
	C366.856201,364.832367 366.647034,364.516235 366.437897,364.200073 
	C366.584686,364.150238 366.849335,364.038452 366.860596,364.059845 
	C367.032227,364.386475 367.170776,364.730530 367.191193,365.109528 
z"/>
<path fill="#000000" opacity="1.000000" stroke="none" 
	d="
M308.712067,420.640869 
	C308.779694,421.027618 308.751953,421.319611 308.724213,421.611633 
	C308.456726,421.513336 308.189270,421.415070 307.921753,421.316803 
	C308.153412,421.059906 308.385071,420.803040 308.712067,420.640869 
z"/>
<path fill="#000000" opacity="1.000000" stroke="none" 
	d="
M405.600159,290.120361 
	C405.673706,290.405548 405.641785,290.657959 405.609863,290.910370 
	C405.466370,290.867279 405.322845,290.824188 405.179352,290.781128 
	C405.284485,290.549927 405.389587,290.318756 405.600159,290.120361 
z"/>
<path fill="#000000" opacity="1.000000" stroke="none" 
	d="
M369.068420,108.703842 
	C368.834290,108.998932 368.543701,109.170898 368.253113,109.342865 
	C368.186310,109.199974 368.119507,109.057083 368.052734,108.914185 
	C368.372467,108.803032 368.692200,108.691879 369.068420,108.703842 
z"/>
<path fill="#000000" opacity="1.000000" stroke="none" 
	d="
M215.547089,90.950035 
	C215.848969,91.324142 216.001404,91.661674 216.153839,91.999207 
	C215.719498,91.909363 215.285141,91.819519 214.850800,91.729683 
	C215.033081,91.457611 215.215363,91.185539 215.547089,90.950035 
z"/>
<path fill="#000000" opacity="1.000000" stroke="none" 
	d="
M348.174896,387.302826 
	C347.933807,387.171326 347.787048,386.998199 347.640289,386.825073 
	C347.764893,386.766388 347.889496,386.707703 348.014099,386.648987 
	C348.099152,386.853088 348.184174,387.057129 348.174896,387.302826 
z"/>
<path fill="#000000" opacity="1.000000" stroke="none" 
	d="
M117.299393,175.959320 
	C117.229355,175.694809 117.255249,175.462662 117.281136,175.230499 
	C117.413277,175.272797 117.545425,175.315079 117.677567,175.357376 
	C117.583488,175.568802 117.489410,175.780243 117.299393,175.959320 
z"/>
<path fill="#000000" opacity="1.000000" stroke="none" 
	d="
M430.165833,262.332001 
	C429.949158,262.190460 429.815613,261.997925 429.682068,261.805420 
	C429.796997,261.736664 429.911957,261.667938 430.026917,261.599182 
	C430.100952,261.826477 430.174957,262.053772 430.165833,262.332001 
z"/>
<path fill="#000000" opacity="1.000000" stroke="none" 
	d="
M320.704163,388.964111 
	C320.516357,388.774017 320.427002,388.558624 320.337616,388.343231 
	C320.472290,388.308044 320.606964,388.272858 320.741638,388.237640 
	C320.761963,388.471344 320.782257,388.705078 320.704163,388.964111 
z"/>
<path fill="#000000" opacity="1.000000" stroke="none" 
	d="
M363.300781,115.188347 
	C363.018494,115.178116 362.797607,115.090973 362.576721,115.003830 
	C362.657074,114.896042 362.737457,114.788261 362.817810,114.680489 
	C362.999268,114.824142 363.180695,114.967789 363.300781,115.188347 
z"/>
<path fill="#000000" opacity="1.000000" stroke="none" 
	d="
M319.300720,85.188385 
	C319.018433,85.178177 318.797546,85.091034 318.576660,85.003899 
	C318.657043,84.896103 318.737396,84.788307 318.817780,84.680511 
	C318.999207,84.824150 319.180664,84.967796 319.300720,85.188385 
z"/>
<path fill="#000000" opacity="1.000000" stroke="none" 
	d="
M84.963959,309.295898 
	C84.773880,309.483673 84.558502,309.573029 84.343117,309.662415 
	C84.307938,309.527740 84.272751,309.393066 84.237572,309.258392 
	C84.471268,309.238098 84.704964,309.217804 84.963959,309.295898 
z"/>
<path fill="#000000" opacity="1.000000" stroke="none" 
	d="
M274.733673,403.268921 
	C274.677612,403.505371 274.555176,403.672485 274.432739,403.839600 
	C274.343445,403.747772 274.254181,403.655945 274.164917,403.564087 
	C274.332367,403.442566 274.499817,403.321075 274.733673,403.268921 
z"/>
<path fill="#000000" opacity="1.000000" stroke="none" 
	d="
M357.379761,133.906311 
	C357.514160,133.898499 357.609589,133.933762 357.704987,133.969025 
	C357.583588,133.962479 357.462158,133.955933 357.379761,133.906311 
z"/>
<path fill="#000000" opacity="1.000000" stroke="none" 
	d="
M87.553009,244.152985 
	C87.437897,244.085236 87.379379,244.003113 87.320862,243.920990 
	C87.417107,243.993530 87.513351,244.066086 87.553009,244.152985 
z"/>
<path fill="#000000" opacity="1.000000" stroke="none" 
	d="
M97.543152,362.843567 
	C97.561333,362.850067 97.524956,362.837067 97.543152,362.843567 
z"/>
<path fill="#000000" opacity="1.000000" stroke="none" 
	d="
M71.089523,211.632233 
	C70.963051,211.600403 70.885147,211.536591 70.807243,211.472778 
	C70.917519,211.515274 71.027802,211.557770 71.089523,211.632233 
z"/>
<path fill="#000000" opacity="1.000000" stroke="none" 
	d="
M63.632233,202.910568 
	C63.600384,203.037048 63.536568,203.114960 63.472763,203.192886 
	C63.515270,203.082596 63.557766,202.972305 63.632233,202.910568 
z"/>
<path fill="#000000" opacity="1.000000" stroke="none" 
	d="
M383.632324,332.910645 
	C383.600494,333.037140 383.536682,333.115051 383.472839,333.192963 
	C383.515320,333.082672 383.557831,332.972351 383.632324,332.910645 
z"/>
<path fill="#000000" opacity="1.000000" stroke="none" 
	d="
M303.379761,424.906281 
	C303.514160,424.898468 303.609589,424.933746 303.705017,424.968994 
	C303.583588,424.962433 303.462158,424.955902 303.379761,424.906281 
z"/>
<path fill="#000000" opacity="1.000000" stroke="none" 
	d="
M385.906006,140.620026 
	C385.898224,140.485672 385.933502,140.390289 385.968750,140.294907 
	C386.044617,140.360672 386.120483,140.426453 386.196320,140.492218 
	C386.113892,140.547821 386.031464,140.603424 385.906006,140.620026 
z"/>
<path fill="#000000" opacity="1.000000" stroke="none" 
	d="
M371.657104,143.005264 
	C371.553497,143.088104 371.454956,143.113892 371.356384,143.139648 
	C371.458313,143.075836 371.560242,143.012024 371.657104,143.005264 
z"/>
<path fill="#000000" opacity="1.000000" stroke="none" 
	d="
M340.657288,396.005066 
	C340.553589,396.087952 340.454926,396.113739 340.356293,396.139557 
	C340.458313,396.075684 340.560303,396.011841 340.657288,396.005066 
z"/>
<path fill="#000000" opacity="1.000000" stroke="none" 
	d="
M126.906204,175.620239 
	C126.898399,175.485840 126.933662,175.390442 126.968925,175.295044 
	C127.044815,175.360825 127.120705,175.426590 127.196594,175.492355 
	C127.114159,175.547989 127.031715,175.603607 126.906204,175.620239 
z"/>
<path fill="#000000" opacity="1.000000" stroke="none" 
	d="
M400.843628,197.456802 
	C400.963013,197.404007 401.062927,197.405777 401.162811,197.407547 
	C401.049927,197.442154 400.937012,197.476761 400.843628,197.456802 
z"/>
<path fill="#000000" opacity="1.000000" stroke="none" 
	d="
M354.011597,382.032288 
	C353.995270,382.044586 354.027924,382.019958 354.011597,382.032288 
z"/>
<path fill="#000000" opacity="1.000000" stroke="none" 
	d="
M93.035156,358.010406 
	C93.032516,358.030640 93.037804,357.990173 93.035156,358.010406 
z"/>
<path fill="#000000" opacity="1.000000" stroke="none" 
	d="
M370.011566,349.032227 
	C369.995239,349.044525 370.027893,349.019897 370.011566,349.032227 
z"/>
<path fill="#000000" opacity="1.000000" stroke="none" 
	d="
M171.989532,384.035156 
	C171.969284,384.032532 172.009781,384.037811 171.989532,384.035156 
z"/>
<path fill="#000000" opacity="1.000000" stroke="none" 
	d="
M376.010559,362.964905 
	C376.030823,362.967560 375.990295,362.962280 376.010559,362.964905 
z"/>
<path fill="#000000" opacity="1.000000" stroke="none" 
	d="
M131.964935,387.989563 
	C131.967575,387.969299 131.962280,388.009796 131.964935,387.989563 
z"/>
<path fill="#090909" opacity="1.000000" stroke="none" 
	d="
M411.234009,338.915344 
	C411.226624,339.058746 411.167603,339.144104 411.108582,339.229462 
	C411.042847,339.155762 410.977112,339.082031 410.911407,339.008331 
	C411.001709,338.957977 411.092041,338.907654 411.234009,338.915344 
z"/>
<path fill="#000000" opacity="1.000000" stroke="none" 
	d="
M417.989563,338.035156 
	C417.969330,338.032501 418.009827,338.037781 417.989563,338.035156 
z"/>
<path fill="#000000" opacity="1.000000" stroke="none" 
	d="
M161.989532,392.035156 
	C161.969284,392.032501 162.009781,392.037781 161.989532,392.035156 
z"/>
<path fill="#000000" opacity="1.000000" stroke="none" 
	d="
M362.988403,369.967712 
	C363.004700,369.955353 362.972076,369.980042 362.988403,369.967712 
z"/>
<path fill="#000000" opacity="1.000000" stroke="none" 
	d="
M185.964890,391.989532 
	C185.967529,391.969269 185.962250,392.009796 185.964890,391.989532 
z"/>
<path fill="#000000" opacity="1.000000" stroke="none" 
	d="
M337.032318,392.988586 
	C337.044647,393.004883 337.019989,392.972260 337.032318,392.988586 
z"/>
<path fill="#000000" opacity="1.000000" stroke="none" 
	d="
M219.035095,438.010498 
	C219.032440,438.030762 219.037750,437.990234 219.035095,438.010498 
z"/>
<path fill="#090909" opacity="1.000000" stroke="none" 
	d="
M402.154877,158.440292 
	C402.097504,158.553848 402.019684,158.613281 401.941864,158.672699 
	C402.006073,158.577209 402.070251,158.481689 402.154877,158.440292 
z"/>
<path fill="#000000" opacity="1.000000" stroke="none" 
	d="
M154.011658,96.032257 
	C153.995346,96.044579 154.027985,96.019936 154.011658,96.032257 
z"/>
<path fill="#000000" opacity="1.000000" stroke="none" 
	d="
M336.964905,102.989563 
	C336.967529,102.969315 336.962250,103.009804 336.964905,102.989563 
z"/>
<path fill="#000000" opacity="1.000000" stroke="none" 
	d="
M142.967712,115.011551 
	C142.955383,114.995232 142.980026,115.027870 142.967712,115.011551 
z"/>
<path fill="#000000" opacity="1.000000" stroke="none" 
	d="
M387.032166,127.988503 
	C387.044495,128.004822 387.019836,127.972183 387.032166,127.988503 
z"/>
<path fill="#000000" opacity="1.000000" stroke="none" 
	d="
M138.988388,135.967834 
	C139.004715,135.955521 138.972061,135.980164 138.988388,135.967834 
z"/>
<path fill="#000000" opacity="1.000000" stroke="none" 
	d="
M366.967804,146.011597 
	C366.955475,145.995285 366.980133,146.027924 366.967804,146.011597 
z"/>
<path fill="#000000" opacity="1.000000" stroke="none" 
	d="
M100.032349,146.988495 
	C100.044678,147.004807 100.020027,146.972168 100.032349,146.988495 
z"/>
<path fill="#090909" opacity="1.000000" stroke="none" 
	d="
M403.045471,151.172104 
	C402.885101,151.162109 402.789154,151.095718 402.693207,151.029312 
	C402.832092,151.058105 402.971008,151.086914 403.045471,151.172104 
z"/>
<path fill="#000000" opacity="1.000000" stroke="none" 
	d="
M114.010544,172.964813 
	C114.030785,172.967468 113.990303,172.962173 114.010544,172.964813 
z"/>
<path fill="#000000" opacity="1.000000" stroke="none" 
	d="
M421.011597,186.032227 
	C420.995300,186.044556 421.027924,186.019897 421.011597,186.032227 
z"/>
<path fill="#000000" opacity="1.000000" stroke="none" 
	d="
M82.010605,194.964813 
	C82.030846,194.967453 81.990364,194.962173 82.010605,194.964813 
z"/>
<path fill="#000000" opacity="1.000000" stroke="none" 
	d="
M410.988464,287.967712 
	C411.004761,287.955383 410.972137,287.980042 410.988464,287.967712 
z"/>
<path fill="#000000" opacity="1.000000" stroke="none" 
	d="
M78.989471,283.035156 
	C78.969223,283.032501 79.009720,283.037781 78.989471,283.035156 
z"/>
<path fill="#000000" opacity="1.000000" stroke="none" 
	d="
M424.988373,242.967743 
	C425.004700,242.955414 424.972046,242.980072 424.988373,242.967743 
z"/>
<path fill="#000000" opacity="1.000000" stroke="none" 
	d="
M436.035156,236.010437 
	C436.032532,236.030685 436.037811,235.990189 436.035156,236.010437 
z"/>
<path fill="#000000" opacity="1.000000" stroke="none" 
	d="
M83.011612,215.032288 
	C82.995293,215.044601 83.027939,215.019958 83.011612,215.032288 
z"/>
<path fill="#000000" opacity="1.000000" stroke="none" 
	d="
M66.989571,210.035095 
	C66.969322,210.032440 67.009819,210.037735 66.989571,210.035095 
z"/>
<path fill="#000000" opacity="1.000000" stroke="none" 
	d="
M71.010475,203.964905 
	C71.030724,203.967545 70.990227,203.962250 71.010475,203.964905 
z"/>
<path fill="#000000" opacity="1.000000" stroke="none" 
	d="
M392.964905,188.989441 
	C392.967529,188.969193 392.962250,189.009689 392.964905,188.989441 
z"/>
<path fill="#090909" opacity="1.000000" stroke="none" 
	d="
M195.238297,105.924911 
	C195.270432,105.925781 195.206161,105.924026 195.238297,105.924911 
z"/>
<path fill="#060606" opacity="1.000000" stroke="none" 
	d="
M267.726349,410.272034 
	C267.683807,410.225952 267.944733,410.069122 267.944733,410.069122 
	C267.944733,410.069122 267.768890,410.318146 267.726349,410.272034 
z"/>
<path fill="#060606" opacity="1.000000" stroke="none" 
	d="
M272.458618,411.468048 
	C272.476959,411.439423 272.440247,411.496674 272.458618,411.468048 
z"/>
<path fill="#090909" opacity="1.000000" stroke="none" 
	d="
M386.490234,327.009033 
	C386.475525,326.994598 386.504974,327.023468 386.490234,327.009033 
z"/>
<path fill="#090909" opacity="1.000000" stroke="none" 
	d="
M389.484619,159.967651 
	C389.523560,159.954483 389.445679,159.980820 389.484619,159.967651 
z"/>
<path fill="#090909" opacity="1.000000" stroke="none" 
	d="
M377.681885,161.133301 
	C377.922211,161.336044 377.950073,161.656082 377.834381,162.217499 
	C377.631500,162.192383 377.463654,161.942795 377.377594,161.667618 
	C377.342346,161.554901 377.483856,161.386902 377.681885,161.133301 
z"/>
<path fill="#060606" opacity="1.000000" stroke="none" 
	d="
M275.545837,410.982056 
	C275.543671,411.008942 275.548004,410.955170 275.545837,410.982056 
z"/>
<path fill="#090909" opacity="1.000000" stroke="none" 
	d="
M186.528687,106.045494 
	C186.484360,106.061340 186.572998,106.029648 186.528687,106.045494 
z"/>
<path fill="#090909" opacity="1.000000" stroke="none" 
	d="
M385.487061,162.499664 
	C385.511566,162.491730 385.462585,162.507599 385.487061,162.499664 
z"/>
<path fill="#090909" opacity="1.000000" stroke="none" 
	d="
M188.473511,107.527939 
	C188.446259,107.477448 188.500748,107.578423 188.473511,107.527939 
z"/>
<path fill="#060606" opacity="1.000000" stroke="none" 
	d="
M277.495239,409.513123 
	C277.512726,409.510101 277.477753,409.516174 277.495239,409.513123 
z"/>
<path fill="#090909" opacity="1.000000" stroke="none" 
	d="
M385.482300,324.486206 
	C385.520172,324.468201 385.444427,324.504181 385.482300,324.486206 
z"/>
</svg>